PathFileType	4	(X/Y/Z)	C:/Users/opensim2020/Desktop/walking_exp_matlab/subject03_walking14_straight_01.trc																																																																																																																																											
DataRate	CameraRate	NumFrames	NumMarkers	Units	OrigDataRate	OrigDataStartFrame	OrigNumFrames																																																																																																																																							
100	100	6	47	mm	100	655	205																																																																																																																																							
Frame#	Time	LFHD			RFHD			LBHD			RBHD			C7			T10			CLAV			STRN			RBAK			LSHO			LUPA			LELB			LFRM			LWRA			LWRB			LFIN			RSHO			RUPA			RELB			RFRM			RWRA			RWRB			RFIN			LASI			RASI			LPSI			RPSI			LTHI			LKNE			LTIB			LANK			LHEE			LTOE			RTHI			RKNE			RTIB			RANK			RHEE			RTOE			*39			*40			*41			*42			*43			*44			*45			*46		
		X1	Y1	Z1	X2	Y2	Z2	X3	Y3	Z3	X4	Y4	Z4	X5	Y5	Z5	X6	Y6	Z6	X7	Y7	Z7	X8	Y8	Z8	X9	Y9	Z9	X10	Y10	Z10	X11	Y11	Z11	X12	Y12	Z12	X13	Y13	Z13	X14	Y14	Z14	X15	Y15	Z15	X16	Y16	Z16	X17	Y17	Z17	X18	Y18	Z18	X19	Y19	Z19	X20	Y20	Z20	X21	Y21	Z21	X22	Y22	Z22	X23	Y23	Z23	X24	Y24	Z24	X25	Y25	Z25	X26	Y26	Z26	X27	Y27	Z27	X28	Y28	Z28	X29	Y29	Z29	X30	Y30	Z30	X31	Y31	Z31	X32	Y32	Z32	X33	Y33	Z33	X34	Y34	Z34	X35	Y35	Z35	X36	Y36	Z36	X37	Y37	Z37	X38	Y38	Z38	X39	Y39	Z39	X40	Y40	Z40	X41	Y41	Z41	X42	Y42	Z42	X43	Y43	Z43	X44	Y44	Z44	X45	Y45	Z45	X46	Y46	Z46	X47	Y47	Z47
																																																																																																																																														
180	1.79	908.43274	1612.54346	1377.07507	907.80371	1624.65173	1509.59656	782.90894	1563.14758	1384.39893	787.09009	1574.58899	1514.39709	761.36877	1404.33423	1447.7876	744.18164	1090.27563	1454.87219	885.64197	1334.15625	1451.26489	939.22491	1171.7113	1444.94409	716.65021	1224.79126	1538.94775	839.76929	1369.12012	1297.00452	888.60333	1185.20276	1227.35193	943.87683	1075.11731	1222.24561	1035.7782	987.92511	1244.28162	1114.20264	911.41302	1297.51306	1102.39209	894.65393	1246.03149	1164.91467	845.11987	1271.40625	832.03864	1357.521	1609.69617	807.05835	1137.94617	1684.58899	805.62024	1024.58032	1698.68701	794.74109	887.74298	1705.48999	804.22992	785.8819	1673.21802	772.03461	789.45105	1717.64636	775.34186	712.9624	1706.55505	900.04419	929.27948	1329.95618	919.78064	933.65601	1566.60913	743.75421	953.86993	1393.59802	755.93646	957.70898	1541.35596	802.22644	631.50439	1314.03271	769.36298	458.75778	1362.91516	670.20972	285.71097	1373.35193	595.30011	92.20156	1427.29639	548.49884	67.80318	1465.69189	738.0365	34.60583	1444.6759	930.17554	643.93359	1625.9469	1007.92041	483.07135	1592.10999	1027.24573	297.08331	1605.41223	1081.75806	84.03301	1570.96741	1048.77588	41.78175	1518.94971	1225.70911	77.51569	1549.53528	822.67151	1671.37573	1427.3645	NaN	NaN	NaN	NaN	NaN	NaN	NaN	NaN	NaN	NaN	NaN	NaN	NaN	NaN	NaN	NaN	NaN	NaN	NaN	NaN	NaN
181	1.8	920.97241	1611.02478	1376.81189	920.45642	1623.04211	1509.34155	795.47852	1561.32666	1384.25439	799.83704	1572.73462	1514.2771	774.42352	1402.56665	1448.14648	756.8515	1088.64038	1456.02393	898.60156	1332.39197	1450.77673	952.14557	1169.91858	1443.95667	730.0257	1223.02075	1539.27576	852.05261	1367.27954	1296.77185	902.08472	1184.07568	1227.17834	958.92932	1074.95642	1222.4303	1052.54272	990.50476	1245.60181	1132.57703	916.81934	1300.1676	1121.85095	899.35083	1248.59961	1185.86377	852.40387	1274.65369	845.79565	1355.79138	1609.45557	819.71375	1136.29089	1684.15686	817.61255	1022.93524	1698.38501	805.42194	886.15582	1705.10571	813.68854	784.03564	1672.82837	781.72174	788.15173	1717.43591	783.39532	711.45819	1705.98999	911.17029	927.45111	1329.05139	934.09503	931.74304	1565.63672	755.7951	952.1629	1395.3573	770.078	956.00854	1543.04346	811.76404	630.79718	1313.67383	777.57147	458.26477	1362.19055	675.23999	286.6312	1372.89331	596.59827	94.6521	1427.09009	549.34546	71.06235	1465.56665	738.18506	34.51854	1444.53442	939.89905	640.62866	1627.75818	1019.94543	480.59039	1591.21057	1046.92749	297.18579	1605.20361	1109.07275	85.9976	1571.02222	1077.43494	42.08228	1519.4071	1253.35803	84.7658	1549.28235	835.08112	1669.65637	1427.16785	NaN	NaN	NaN	NaN	NaN	NaN	NaN	NaN	NaN	NaN	NaN	NaN	NaN	NaN	NaN	NaN	NaN	NaN	NaN	NaN	NaN
182	1.81	933.54822	1609.56311	1376.51208	933.19873	1621.52893	1509.10303	808.18695	1559.6239	1384.12915	812.69653	1570.91833	1514.17969	787.43781	1400.83337	1448.08716	769.72595	1086.97473	1457.20349	911.65039	1330.68176	1450.27222	965.23993	1168.25903	1443.09924	743.47095	1221.22632	1539.54541	864.362	1365.52759	1296.54077	915.3092	1182.84497	1226.94043	973.44763	1074.59131	1222.47424	1068.78845	992.89105	1246.83191	1150.31213	922.04132	1302.7019	1140.67517	903.92963	1250.96594	1205.96643	859.55853	1277.76697	859.52948	1354.07446	1609.21387	832.65979	1134.61658	1683.78113	829.96069	1021.24945	1698.08069	816.64185	884.57544	1704.87378	823.84399	782.26978	1672.65308	791.9787	786.81165	1717.33386	792.0517	709.93335	1705.58496	922.95074	925.98108	1328.42859	948.3252	929.84265	1564.6991	768.09729	950.35278	1397.11902	784.229	954.32001	1544.61267	821.62012	630.07794	1313.1825	786.08514	457.27963	1361.38013	680.59314	287.60217	1372.4436	598.03192	97.19302	1426.76221	550.43298	74.72755	1465.23462	738.16949	34.3441	1444.48267	950.62915	637.74677	1629.41211	1033.12744	478.85989	1590.44324	1065.50537	297.48346	1605.05261	1132.73718	87.40617	1570.46057	1102.18823	42.59492	1518.40417	1277.3136	89.68613	1548.69312	847.50385	1668.01111	1426.71667	NaN	NaN	NaN	NaN	NaN	NaN	NaN	NaN	NaN	NaN	NaN	NaN	NaN	NaN	NaN	NaN	NaN	NaN	NaN	NaN	NaN
183	1.82	946.10492	1608.17871	1376.18726	945.98151	1620.03711	1508.80823	820.90778	1557.95435	1384.00269	825.61292	1569.20215	1514.0553	800.41577	1399.2406	1448.19849	783.12927	1085.36169	1458.22803	924.73499	1329.08264	1449.80627	978.38794	1166.68774	1442.3302	756.90729	1219.51953	1539.93726	876.66583	1363.8197	1296.25488	928.27075	1181.61926	1226.70911	987.52167	1074.09875	1222.47473	1084.47644	995.23633	1248.00134	1167.23071	926.755	1304.88599	1158.65552	908.30463	1253.24268	1225.17859	866.49939	1280.56543	873.3443	1352.44202	1609.00732	845.99451	1132.99683	1683.4436	842.77087	1019.57813	1697.68774	828.38232	883.07739	1704.70886	834.58929	780.56622	1672.60022	802.81964	785.37585	1717.18994	801.45282	708.4729	1705.32019	935.01617	924.55695	1327.94556	962.48749	928.02161	1563.90881	780.82593	948.49011	1398.77039	798.34613	952.70319	1546.15295	831.87103	629.37921	1312.72705	795.35168	456.35339	1360.25427	686.57166	288.60004	1371.82581	599.86804	100.10454	1426.30774	551.7196	78.66592	1464.77771	738.36005	34.27269	1444.42444	963.3078	635.64282	1630.06885	1047.27576	477.88098	1589.80579	1082.35693	297.30948	1604.65234	1152.29834	87.88445	1569.74133	1122.31494	42.45438	1518.00232	1297.01721	92.2009	1547.29236	860.25452	1666.13867	1425.34497	NaN	NaN	NaN	NaN	NaN	NaN	NaN	NaN	NaN	NaN	NaN	NaN	NaN	NaN	NaN	NaN	NaN	NaN	NaN	NaN	NaN
184	1.83	958.69556	1606.8302	1375.85522	958.85223	1618.64221	1508.47229	833.46057	1556.4176	1383.96912	838.59143	1567.57544	1513.92847	813.39642	1397.53418	1448.31165	795.70251	1083.64709	1458.7334	937.87622	1327.52222	1449.33801	991.69147	1165.21399	1441.71057	770.44946	1217.93176	1540.31079	889.03156	1362.24414	1295.97559	940.89758	1180.28552	1226.38794	1001.09906	1073.51941	1222.34241	1099.55042	997.34613	1249.0481	1183.52441	931.37354	1306.85974	1175.98901	912.56909	1255.16882	1243.54688	873.16205	1283.1189	887.17706	1350.88867	1608.83252	859.69232	1131.46582	1683.12195	856.05615	1018.03925	1697.39075	840.75159	881.61011	1704.60327	846.03864	778.90741	1672.60706	814.42151	784.1488	1717.36414	811.64368	707.16504	1705.18958	947.45465	923.18555	1327.71741	976.50189	926.40717	1563.42249	793.70532	947.08868	1400.14026	812.37244	951.33997	1547.33594	842.66156	628.66278	1312.17615	805.18292	455.28229	1359.00012	692.98724	289.63556	1371.0625	601.99512	103.2911	1425.70239	553.42072	83.19545	1464.23499	738.52844	34.14751	1444.59326	978.58545	634.69214	1629.74829	1062.31824	477.59781	1589.28906	1097.78735	296.66849	1604.31287	1167.61658	87.15956	1569.11438	1137.25891	41.49974	1517.92224	1312.19531	91.77121	1544.9408	872.92914	1664.35461	1427.08801	NaN	NaN	NaN	NaN	NaN	NaN	NaN	NaN	NaN	NaN	NaN	NaN	NaN	NaN	NaN	NaN	NaN	NaN	NaN	NaN	NaN
185	1.84	971.38226	1605.58313	1375.43408	971.77472	1617.31519	1508.08643	846.21399	1554.7948	1383.80029	851.61127	1565.97021	1513.80298	826.47949	1396.11023	1448.42493	809.04791	1082.26978	1459.12878	951.05573	1326.09729	1448.94141	1005.11877	1163.86084	1441.31873	784.25055	1216.51501	1541.14844	901.30023	1360.76294	1295.65381	953.26556	1178.84705	1226.10303	1013.96564	1072.7157	1222.23938	1114.01953	999.15009	1249.69934	1199.16309	935.828	1308.66479	1192.48511	916.53308	1256.8855	1261.03796	879.49683	1285.35583	901.01447	1349.44336	1608.63477	873.69885	1129.96863	1682.93335	869.74261	1016.56696	1697.10889	853.69354	880.25916	1704.5769	858.16077	777.40717	1672.73621	826.72797	782.90204	1717.63354	822.61743	705.88684	1705.22473	960.3717	921.75641	1327.5426	990.55286	925.18201	1563.34058	807.20502	945.47211	1401.09485	826.31	950.14758	1548.08496	854.1629	627.73889	1311.73291	816.00568	454.26672	1357.60791	700.10724	290.55301	1370.22009	604.24426	106.53766	1425.01746	555.35004	88.03085	1463.44702	738.71271	33.91773	1444.5155	995.77777	634.89429	1628.68628	1078.42163	478.08109	1588.49048	1111.86694	295.54794	1603.69629	1179.24866	85.54787	1568.75037	1147.44983	39.76593	1517.86755	1323.28125	88.41891	1542.06836	885.54181	1662.84924	1426.91528	NaN	NaN	NaN	NaN	NaN	NaN	NaN	NaN	NaN	NaN	NaN	NaN	NaN	NaN	NaN	NaN	NaN	NaN	NaN	NaN	NaN
